<svg width="3000" height="4000" xmlns="http://www.w3.org/2000/svg"><path fill="#e71d36" d="M6.04 5.217h2998.989v3999.765H6.04z"/><path d="M908.073 1327.399l-21.133-122.707-28.153-88.46-18.724-164.876 17.717-223.35s82.488-124.357 95.433-125.783c12.946-1.425 74.813-68.08 116.29-77.124 41.476-9.044 184.765-44.413 184.765-44.413l159.672-58.971 205.154 13.925s121.353 42.274 127.353 43.424c6 1.15 163.623 121.51 163.623 121.51l62.978 128.689 24.977 144.147-102.286 587.889 24.478 569.803-564.914-14.18-275.908-321.809-114.592-197.908z" fill="#fff"/><g color="#000"><path style="-inkscape-stroke:none" d="M-.845 3255.706s235.597 6.792 459.746 137.243l249.825 126.915 159.444 92.12 102.192 58.84 125.03 59.779 108.902 40.476 112.5 27.905 169.12 44.988 108.542 27.947 172.82 54.753 106.381 33.457 137.83 41.8L0 4000z" fill="#fff"/><path style="-inkscape-stroke:none" d="M-.845 3255.706l-4.15 749.29 2016.482-3.068 1.45-4.785-137.804-41.791-106.352-33.448-172.945-54.793-108.656-27.976-169.14-44.994-112.268-27.846-108.426-40.3-124.655-59.6-102.023-58.74-159.557-92.188-249.867-126.936C235.896 3257.448 4.126 3249.92 4.126 3249.92c-6.207-.322-4.978-.131-4.971 5.787zm5.005 5.267c26.092 1.195 242.978 14.519 452.227 136.298l.123.07 249.832 126.92 159.33 92.055 102.361 58.936 125.406 59.959 109.377 40.654 112.733 27.96 169.1 44.983 108.427 27.918 172.693 54.713 106.413 33.467 105.482 31.988-1972.67-1.89z"/></g><g color="#000"><path style="-inkscape-stroke:none" d="M2281.722 4002.579s657.488-225.275 717.05-211.958L3000 4000z" fill="#fff"/><path style="-inkscape-stroke:none" d="M2991.375 3785.023c-3.224.044-6.872.344-11.035.817-8.325.945-18.557 2.706-30.488 5.168-23.864 4.923-54.504 12.653-89.57 22.293-70.135 19.28-157.943 46.203-243.885 73.54-171.885 54.676-336.295 111.007-336.295 111.007l1.62 4.73 723.307 2.404-1.279-218.37-3.887-.87c-2.466-.551-5.264-.763-8.488-.719zm.201 10.07c1.005-.01 1.405.114 2.225.15l1.17 199.775-682.473 2.449c37.06-12.626 159.339-54.148 306.93-101.096 85.874-27.316 173.607-54.214 243.504-73.428 34.948-9.607 65.446-17.293 88.94-22.14 11.746-2.424 21.747-4.136 29.597-5.028 3.924-.445 7.35-.654 10.107-.681z"/></g><path d="M1711.703 1046.968s-45.318-111.64 52.396-138.34c0 0 134.794-67.362 276.432-47.979 0 0 79.011-1.972 62.103 145.93 0 0 2.197 53.756-21.573 139.435l-64.054-23.675-48.876 6.694-63.884 57.75-11.663 18.948-38.17 4.561-32.058 22.108s-72.237-45.026-105.084-167.157z" fill="#e71d36"/><g color="#000"><path style="-inkscape-stroke:none" d="M3001 3523.355s-108.012-578.098-286.172-892.603c0 0-187.38-471.485-242.605-525.203 0 0-29.526-25.155-34.262-46.25l-1.4-4.039s-25.19 35.566-135.84-2.62c0 0-86.039-30.33-126.31-72.044 0 0-50.89 9.762-113.68-26.1 0 0-79.437-19.53-107.643-4.355 0 0-120.31 11.284-209.104-26.223l-41.4-37.768s-71.596-111.783-39.55-179.81c0 0-12.708-43.1 3.373-103.242l62.4-153.57 37.92-84.01 21.465-57.03 6.397-36.094 18.44-26.946 24.194-22.692 38.805-18.384 39.89-4.62s7.197-9.198 28.244-41.298c0 0 27.557-34.394 73.155-43.187 45.598-8.794 126.371 49.604 126.371 49.604l67.043 37.714 118.53 82.399 106.922 84.203 132.509 81.662 118.424 57.089 112.61 57.613 85.726 61.91 77.315 65.469 39.35 39.278z" fill="#fff"/><path style="-inkscape-stroke:none" d="M2026.164 1109.336c-3.351.08-6.623.41-9.793 1.021-47.61 9.182-76.111 44.971-76.111 44.971l-.149.186-.13.199c-18.975 28.939-25.54 37.648-26.819 39.324l-38.53 4.463-40.257 19.072-25.164 23.602-19.357 28.285-6.504 36.7-21.246 56.448-37.893 83.95-62.555 153.949-.08.3c-15.43 57.714-5.079 99.182-3.761 104.067-16.012 36.008-5.583 81.23 8.304 117.662 14.1 36.99 32.256 65.313 32.256 65.313l.354.552 42.52 38.79.79.333c90.617 38.278 211.516 26.596 211.516 26.596l1.01-.096.892-.478c11.59-6.236 38.338-5.901 61.397-2.957 22.563 2.88 41.321 7.445 42.138 7.644 59.09 33.461 106.65 27.633 113.631 26.563 20.95 20.92 51.8 38.4 77.873 50.97 26.8 12.92 48.563 20.59 48.563 20.59l.016.01.016.01c55.888 19.287 90.734 20.162 112.047 15.801 10.656-2.18 17.903-5.687 22.54-8.791.199-.132.257-.233.446-.365 3.55 10.975 11.609 21.363 19.016 29.654 8.013 8.97 15.236 15.159 15.601 15.47 6.1 5.935 15.117 19.032 25.432 36.903 10.317 17.874 22.13 40.62 34.765 66.434 25.271 51.629 53.851 115.551 80.707 177.802 53.713 124.503 100.538 242.323 100.538 242.323l.127.32.17.299c177.29 312.972 285.607 891.056 285.607 891.056l4.545 17.811 6.486-1811.95-40.963-40.888-77.619-65.726-86.191-62.247-113.002-57.814-118.246-57.002-132.045-81.375-106.815-84.12-118.845-82.618-67.118-37.756c-.512-.37-20.435-14.734-46.359-28.25-22.976-11.98-50.292-23.568-73.75-23.002zm.174 10.078c19.89-.208 46.616 10.145 68.953 21.791 25.528 13.31 45.469 27.719 45.469 27.719l.23.166 67.082 37.736 118.211 82.178 107.033 84.289 132.973 81.947 118.604 57.176 112.214 57.412 85.262 61.572 77.01 65.213 37.736 37.666-1.084 1739.317c-29.092-141.193-127.62-581.633-276.672-844.975-.177-.447-46.851-117.875-100.533-242.307-26.892-62.334-55.511-126.355-80.906-178.238-12.697-25.941-24.585-48.845-35.086-67.037-10.5-18.192-19.418-31.578-27.125-39.074l-.12-.115-.124-.108s-7.14-6.086-14.87-14.738c-7.729-8.653-16.175-21.782-17.755-28.8l-.062-.276s-1.515-5.648-10.297-5.557c0 0-16.19 9.485-23.348 11-18.944 3.876-52.018 3.442-106.777-15.455-.048-.017-21.254-7.497-47.512-20.156-26.287-12.674-57.51-30.623-76.83-50.635l-1.88-1.947-2.659.51s-48.82 9.56-110.26-25.532l-.607-.346-.678-.168s-20.095-4.945-43.806-7.972c-23.153-2.956-49.441-4.709-66.14 3.53-1.88.167-119.105 10.479-205.321-25.608l-40.18-36.655c-.898-1.414-17.69-28.007-31.014-62.96-13.687-35.909-22.869-79.745-7.908-111.504l.81-1.721-.536-1.824s-12.306-41.484 3.343-100.276l62.23-153.152 37.946-84.068 21.686-57.616 6.289-35.486 17.523-25.605 23.225-21.784 37.35-17.695 41.146-4.766 1.289-1.644s7.41-9.52 28.283-41.338c.21-.26 26.71-32.948 70.123-41.32 2.53-.488 5.233-.732 8.074-.762z"/></g><path d="M1090.896 1221.814s-56.753-93.852 1.66-129.045c0 0 134.772-104.503 339.316-117.074 204.543-12.57 100.1 318.434 100.1 318.434s-9.017 75.713-200.37 117.995c0 0-121.887 38.086-165.415-65.54 0 0-51.472-74.957-75.291-124.77z" fill="#e71d36"/><path d="M1525.737 1028.203s21.71-105.231 218.045-42.526c0 0-130.131-21.765-218.045 42.526z" fill="#e71d36"/><path d="M1101.376 1212.232s-55.763-90.877 1.632-124.954c0 0 132.423-101.19 333.4-113.363 200.977-12.172 98.355 308.34 98.355 308.34s-8.86 73.312-196.876 114.254c0 0-119.763 36.879-162.532-63.462 0 0-50.575-72.581-73.979-120.815z" fill="#011627"/><path d="M1517.737 1022.203s84.454-122.886 218.045-44.494c0 0-122.652-20.332-218.045 44.494zM873.389 1318.911l126.68-145.689 79.297-25.4 8.57 30.181-67.41 23.978-19.24 7.913-124.47 119.312zM2130.564 892.166l60.21-4.67 5.633 26.506-28.193 27.227-19.84 10.547-.588 15.199-10.767 2.71c2.03-26.34-21.302-75.45-6.455-77.519z" fill="#011627"/><path d="M1588.417 1397.936s46.88-73.732 115.09-13.437c0 0-46.839 58.157-115.09 13.437z" fill="#1a1a1a"/><path style="-inkscape-stroke:none" d="M1592.18 1295.055a46.535 46.535 0 0 0-6.995.882c-19.458 3.954-44.424 21.042-70.166 70.167l-.126.24-.098.252s-6.305 15.857-4.36 35.19c1.946 19.331 12.876 42.627 45 55.728l.487.199.517.092s9.356 1.712 20.1.896c10.743-.815 24.04-4.176 29.877-16.037l-8.971-4.416c-3.41 6.928-12.416 9.78-21.664 10.483-8.788.667-16.273-.573-17.043-.703-28.72-11.898-36.688-30.69-38.354-47.243-1.634-16.242 3.384-29.633 3.635-30.29 24.9-47.405 47.599-61.597 63.158-64.758 15.59-3.168 24.682 4.048 24.682 4.048l6.067-7.95s-10.169-7.543-25.747-6.78z" color="#000"/><path d="M1536.007 1696.63l25.957-29.646 43.598-28.868 60.845-35.018-5.536 68.507 1.127 21.147 1.035 13.588s-94.553 18.393-127.026-9.71z" fill="#28170b"/><path d="M1536.007 1696.63l38.425-23.973 26.346-17.912 39.615-28.272s14.005-7.585 12.15-4.507c-1.854 3.077-4.633 22.427-4.633 22.427l-6.133 11.934-28.788 15.268-28.827 14.651-26.939 8.282-21.216 2.101M926.646 1457.82l-18.519-69.748-10.494-26.01-46.83-25.75-44.006-10.556c-40.234-6.852-69.058-139.59-85.677-221.399-86.594-400.78 149.773-683.614 385.924-794.624 213.956-64.175 364.724-89.276 555.685 1.668 54.311 19.789 105.079 59.41 135.763 93.312l57.681 69.972c81.277 109.283 140.546 249.424 153.477 373.391l-33.078 5.197c-50.522-359.356-328.12-414.046-622.614-363.657-126.34 34.333-201.239 42.39-310.843 104.556-155.139 57.334-203.91 252.837-168.747 387.558l11.567 32.53 50.513 82.058-6.186 79.207 2.525 70.538 8.519 100.105 10.213 108.284z" fill="#260801"/><path d="M1726.885 1038.992s-47.36-113.045 54.758-140.08c0 0 140.869-68.21 288.891-48.582 0 0 82.573-1.997 64.903 147.765 0 0 2.296 54.433-22.545 141.19l-66.942-23.973-51.079 6.778-66.763 58.476-12.19 19.186-39.89 4.62-38.805 18.384s-70.19-41.591-104.518-165.258z" fill="#011627"/><g fill="#011627"><path d="M-2.826 2201.675l30.428-64.308 68.159-78.735 39.295-50.74 48.963-38.481 54.254-51.688c4.697-24.236 44.788-52.794 99.869-91.867 133.516-58.077-27.949-.278 192.119-75.79 132.088-20.438 96.164-17.064 132.088-20.438l57.96-5.757 42.635 2.596c33.098-24.935 69.031-5.084 99.355-7.858 17.812-1.763 25.866-1.576 40.459-10.234 2.04-22.455 15.026-21.178 37.746-24.674l-19.55 34.04 8.238 18.198 41.724 28.849 32.255 1.023 50.983-32.02 51.433 47.778c86.168 232.048 131.876 446.357 282.25 634.041l108.521 116.304 105.442 59.48 66.17 42.291 108.204-71.833 43.755-29.35 59.583 3.273 38.963 2.541 44.283 5.63 67.88-.528 44.664 1.625 47.71-5.648 47.844-8.09 41.83-15.327 56.018-21.947 43.26-33.51 30.748-46.931 1.8-49.916-1.292-44.773-13.635-64.031-41.284-43.324-38.935-43.641-33.633-52.717-1.969-69.333-28.84-49.121 27.65 11.236 27.218 17.451 58.618 26.815 67.833 18.368 55.861-5.897 6.448-4.285 9.409-1.123 15.432 25.237 32.806 36.876 28.467 54.91 73.959 149.335 12.664 28.323 13.358 40.124 22.854 43.957 21.008 50.766 13.953 41.463 30.7 71.383 21.957 44.69 15.854 34.839 22.952 40.84 14.432 41.473 15.164 30.09 13.702 39.456 11.183 31.995 18.013 45.225 13.04 30.82 15.043 47.315 13.512 45.53 12.672 38.101 12.497 43.866 12.148 41.575 6.783 32.599 6.838 26.434 5.76 17.576 14.821 52.955 6.585 32.876 14.694 56.7 8.48 41.823 5.225 35.804 9.543 22.973 7.509 75.105-2.796 238.289-78.389 16.211-55.466 10.887-20.273-29.7-6.213-27.487 3.11-19.982 7.244-8.072-1.575-46.265-9.633-32.01 8.313-28.816-3.392-39.808 10.766-18.767-2.346-20.713c-11.177-11.064-18.426-14.007-14.547-41.794-8.522-14.99-20.004-24.618-24.72-38.57-6.363-10.981-18.287-11.378-29.91-13.614-29.739-6.697-48.33-18.05-71.199-34.036l-20.357-21.645-15.767-21.526-7.753-11.885-19.679-34.554-18.53-32.839c-13.476-21.56-19.26-33.332-23.446-57.084l-3.558-24.179-.45-5.592c-9.879-1.302-18.657-4.916-27.691-8.805-9.61-3.496-15.595-7.613-19.98-16.192-5.61-20.547-22.754 9.44-22.915 10.89l-10.454 10.197c-1.202 25.871-4.947 45.9-16.704 67.822l-.349 23.678-5.112 44.44-4.664 45.738-6.45 61.14-7.242 48.236-8.118 146.72-146.024 19.524-94.586 20.063-116.344 28.167-98.092 8.802-48.334 3.843-208.608 6.53-316.485 40.93-63.419 10.56-137.56-.466"/><path d="M-2.826 2201.675l1.981 1054.03 74.816 4.98 54.5 11.98 116.643 28.19 60.915 20.574 68.054 27.135 67.535 33.796 63.655 32.402 98.04 50.38 69.011 37.861 97.18 53.339 120.79 68.826 69.804 36.594 106.653 54 175.121 64.837 14.09-126.742"/></g><path d="M1030.438 1753.58l253.676 409.54 103.54 107.859 117.248 102.293 152.08 98.402 94.17 49.885 41.282 7.825 27.495 3.118-53.716 36.61-55.547 37.522-42.696 27.051-107.521-57.155-64.09-44.616-90.658-88.195-89.493-94.597-52.864-67.697-33.769-42.543-29.562-74.992-33.607-90.245-34.74-78.387-22.021-56.162z" fill="#fff"/><path d="M915.893 1456l-34.303 80.658-5.097 8.696-29.559-30.333-23.859-61.595 5.986-47.44 33.834-11.354 39.007 28.555 13.27 19.667z" fill="#f2f2f2"/><path d="M1485.762 955.104s-199.89-93.05-403.358 100.983c0 0 305.354-121.973 403.358-100.983zM1699.466 936.51s28.47-64.71 125.205-77.935c0 0-110.802 60.073-124.755 81.47" fill="#260801"/><path d="M1667.97 2633.685l-175.656 72.915-38.067 288.52-70.692 531.61 231.646 40.633 39.423-268.016 61.889-509.452 45.834-100.45z" fill="#fff"/><ellipse cx="1596.989" cy="2793.696" rx="53.962" ry="51.972" fill="#e71d36"/><ellipse cx="1557.749" cy="3065.266" rx="53.962" ry="51.972" fill="#e71d36"/><ellipse cx="1525.251" cy="3344.207" rx="53.962" ry="51.972" fill="#e71d36"/><ellipse cx="1527.014" cy="3205.902" rx="53.962" ry="51.972" fill="none"/><path d="M926.646 1457.82s131.86 738.038 824.505 1063.739c0 0 1008.097 226.211 423.26-540.963l-82.278-8.132-31.402-17.968-42.063-7.132-65.58 2.777-80.595-.706-128.509-25.517s-266.696 6.578-529.58-231.444l-264.262-244.742z" fill="#260801"/><path d="M926.646 1457.82l-18.519-69.748-10.494-26.01-46.83-25.75-44.006-10.556 7.907 7.969s-38.827 8.596-24.473 55.885c0 0 18.203 37.03 14.251 60.045 0 0 11.86 64.25 31.233 89.982 19.374 25.734 101.896 119.573 104.79 144.064 0 0-55.681 51.697 30.41 81.087 0 0 44.15 6.815 61.953-29.88 17.802-36.696 20.007-20.856-106.222-277.087z" fill="#fff" stroke="#000" stroke-width="10"/><path d="M886.121 1410.898s-9.464-30.289-29.484-33.316c-20.02-3.028-35.537 15.533-35.537 15.533s26.055 37.014 32.89 39.467c6.835 2.453 13.478 49.235 9.968 50.477-3.51 1.243 1.872 50.195 1.872 50.195s55.61-47.77 20.291-122.356z" fill="#ececec"/><ellipse cx="981.157" cy="1715.587" rx="30.048" ry="29.943" fill="#f9f9f9"/><path d="M1241.872 3780.6l125.782 34.804 128.568 29.415 126.85 35.597 201.057 64.071 187.358 57.441 270.235.65 583.196-184.858-11.653-250.907-384.878 65.341L1241.872 3780.6" fill="#502d16"/></svg>